<?xml version="1.0" standalone="no"?>

<svg viewBox="0 0 500 500" style="background-color:#ffffff00" version="1.1" xmlns="http://www.w3.org/2000/svg" xmlns:xlink="http://www.w3.org/1999/xlink" xml:space="preserve" x="0px" y="0px" width="100%" height="100%">
	<defs>
		<filter id="filter1" x="-100%" y="-100%" width="300%" height="300%">
			<!-- Sombra -->
			<feOffset result="out" in="SourceGraphic" dx="0" dy="0"/>
			<feColorMatrix result="out" in="out" type="matrix" values="0 0 0 0 0  0 0 0 0 0  0 0 0 0 0  0 0 0 0.3 0"/>
			<feGaussianBlur result="out" in="out" stdDeviation="3"/>
			<feBlend in="SourceGraphic" in2="out" mode="normal" result="Sombra1"/>
		</filter>
	</defs>
	<g id="Capa%201">
		<path filter="url(#filter1)" d="M 422 431.7 L 422 69.3 C 389.3 69.3 362.8 42.7 362.8 10 L 309.7 10 C 309.7 42.7 281.3 43.5 248.6 43.5 C 215.9 43.5 191.3 42.7 191.3 10 L 138.2 10 C 138.2 42.7 111.7 69.3 79 69.3 L 79 431.7 C 111.7 431.7 138.2 458.3 138.2 491 L 191.3 491 C 191.3 458.3 214.5 457.9 247.2 457.9 C 279.9 457.9 309.7 458.3 309.7 491 L 362.8 491 C 362.8 458.3 389.3 431.7 422 431.7 Z" fill="#0040ff"/>
		<text opacity="0.9" x="73.6" y="249.4" width="348" fill="#ffffff" style="font-family: Franklin Gothic Demi; font-size: 75px; color: #ffffff; text-align: center; "><tspan><![CDATA[1234]]></tspan></text>
		<text opacity="0.7" x="76.4" y="362.3" width="342.5" fill="#ffffff" style="font-family: Franklin Gothic Demi; font-size: 75px; color: #ffffff; text-align: center; "><tspan><![CDATA[xxxx]]></tspan></text>
		<g>
			<path d="M 217.5 79.4 C 217.5 84 213.8 87.7 209.3 87.7 C 204.7 87.7 201 84 201 79.4 C 201 74.8 204.7 71.1 209.3 71.1 C 213.8 71.1 217.5 74.8 217.5 79.4 Z" fill="#ffffff"/>
			<path d="M 245 79.4 C 245 84 241.3 87.7 236.7 87.7 C 232.2 87.7 228.5 84 228.5 79.4 C 228.5 74.8 232.2 71.1 236.7 71.1 C 241.3 71.1 245 74.8 245 79.4 Z" fill="#ffffff"/>
			<path d="M 272.5 79.4 C 272.5 84 268.8 87.7 264.3 87.7 C 259.7 87.7 256 84 256 79.4 C 256 74.8 259.7 71.1 264.3 71.1 C 268.8 71.1 272.5 74.8 272.5 79.4 Z" fill="#ffffff"/>
			<path d="M 300 79.4 C 300 84 296.3 87.7 291.7 87.7 C 287.2 87.7 283.5 84 283.5 79.4 C 283.5 74.8 287.2 71.1 291.7 71.1 C 296.3 71.1 300 74.8 300 79.4 Z" fill="#ffffff"/>
		</g>
		<g>
			<path d="M 101.4 143 C 101.4 93.4 134.7 53.2 175.7 53.2 L 324.2 53.2 C 365.3 53.2 398.5 93.4 398.5 143 L 398.5 361.1 C 398.5 410.8 365.3 451 324.2 451 L 175.7 451 C 134.7 451 101.4 410.8 101.4 361.1 L 101.4 143 Z" stroke="#ffffff" stroke-width="6" fill="none"/>
		</g>
		<path id="L%EDnea" opacity="0.4" d="M 117 250 L 388 250 " stroke="#ffffff" stroke-width="6" fill="none"/>
		<path d="M 315 241 L 315 326.5 L 229.5 326.5 L 229.5 405.5 L 315 405.5 L 315 491 L 394 491 L 394 405.5 L 479.5 405.5 L 479.5 326.5 L 394 326.5 L 394 241 L 315 241 Z" stroke="#0040ff" stroke-width="5" fill="#ffffff"/>
	</g>
</svg>